<?xml version="1.0" encoding="UTF-8" standalone="no"?><!DOCTYPE svg PUBLIC "-//W3C//DTD SVG 1.1//EN" "http://www.w3.org/Graphics/SVG/1.1/DTD/svg11.dtd"><svg width="100%" height="100%" viewBox="0 0 2980 1818" version="1.1" xmlns="http://www.w3.org/2000/svg" xmlns:xlink="http://www.w3.org/1999/xlink" xml:space="preserve" xmlns:serif="http://www.serif.com/" style="fill-rule:evenodd;clip-rule:evenodd;stroke-linejoin:round;stroke-miterlimit:2;"><g id="V"><path d="M2853.992,343.955l-902.708,1394.231l-499.318,-88.043l-371.413,-1618.893l546.667,96.392l204.209,943.639l523.246,-815.369l499.318,88.043Z" style="fill:#dcfefe;fill-rule:nonzero;stroke:#dcfefe;stroke-width:62.5px;"/><path d="M2947.932,360.519l-902.708,1394.231l-499.318,-88.043l-371.413,-1618.893l546.667,96.392l204.209,943.639l523.246,-815.369l499.318,88.043Z" style="fill:#04062c;fill-rule:nonzero;stroke:#dcfefe;stroke-width:62.5px;"/></g><g id="S"><path d="M859.688,1761.421c-124.829,22.011 -248.897,29.463 -372.203,22.356c-123.306,-7.107 -227.157,-27.63 -311.551,-61.57l98.296,-399.026c79.078,28.96 165.31,48.152 258.697,57.575c93.386,9.424 180.972,6.925 262.757,-7.496c70.306,-12.397 119.323,-28.067 147.051,-47.011c27.728,-18.944 39.188,-42.046 34.381,-69.308c-5.566,-31.566 -29.469,-51.762 -71.71,-60.587c-42.241,-8.826 -110.202,-14.595 -203.885,-17.309c-120.521,-3.899 -221.989,-13.007 -304.403,-27.324c-82.414,-14.317 -157.946,-48.341 -226.598,-102.07c-68.651,-53.73 -112.591,-135.118 -131.819,-244.164c-16.698,-94.698 -5.334,-185.468 34.093,-272.309c39.427,-86.841 107.948,-161.799 205.564,-224.874c97.616,-63.075 221.753,-107.895 372.409,-134.459c103.307,-18.216 206.781,-24.996 310.423,-20.339c103.642,4.656 197.28,21.802 280.915,51.438l-87.915,394.976c-160.942,-48.552 -307.415,-61.19 -439.419,-37.914c-130.569,23.023 -190.287,66.1 -179.155,129.232c5.313,30.131 28.668,49.314 70.064,57.549c41.397,8.235 108.092,13.118 200.087,14.65c118.581,1.283 219.795,8.956 303.644,23.02c83.849,14.064 160.394,47.539 229.636,100.425c69.242,52.886 113.477,133.852 132.705,242.898c16.698,94.698 5.27,185.109 -34.283,271.233c-39.553,86.124 -108.074,161.082 -205.564,224.874c-97.49,63.792 -221.563,108.971 -372.219,135.535Z" style="fill:#dcfefe;fill-rule:nonzero;stroke:#dcfefe;stroke-width:62.5px;"/><path d="M880.905,1657.153c-124.829,22.011 -248.897,29.463 -372.203,22.356c-123.306,-7.107 -227.157,-27.63 -311.551,-61.57l98.296,-399.026c79.078,28.96 165.31,48.152 258.697,57.575c93.386,9.424 180.972,6.925 262.757,-7.496c70.306,-12.397 119.323,-28.067 147.051,-47.011c27.728,-18.944 39.188,-42.046 34.381,-69.308c-5.566,-31.566 -29.469,-51.762 -71.71,-60.587c-42.241,-8.826 -110.202,-14.595 -203.885,-17.309c-120.521,-3.899 -221.989,-13.007 -304.403,-27.324c-82.414,-14.317 -157.946,-48.341 -226.598,-102.07c-68.651,-53.73 -112.591,-135.118 -131.819,-244.164c-16.698,-94.698 -5.334,-185.468 34.093,-272.309c39.427,-86.841 107.948,-161.799 205.564,-224.874c97.616,-63.075 221.753,-107.895 372.409,-134.459c103.307,-18.216 206.781,-24.996 310.423,-20.339c103.642,4.656 197.28,21.802 280.915,51.438l-87.915,394.976c-160.942,-48.552 -307.415,-61.19 -439.419,-37.914c-130.569,23.023 -190.287,66.1 -179.155,129.232c5.313,30.131 28.668,49.314 70.064,57.549c41.397,8.235 108.092,13.118 200.087,14.65c118.581,1.283 219.795,8.956 303.644,23.02c83.849,14.064 160.394,47.539 229.636,100.425c69.242,52.886 113.477,133.852 132.705,242.898c16.698,94.698 5.27,185.109 -34.283,271.233c-39.553,86.124 -108.074,161.082 -205.564,224.874c-97.49,63.792 -221.563,108.971 -372.219,135.535Z" style="fill:#04062c;fill-rule:nonzero;stroke:#dcfefe;stroke-width:62.5px;"/></g></svg>